{
  "accessors": [
    {
      "bufferView": 2,
      "componentType": 5126,
      "count": 2330,
      "max": [
        31.939910888671875,
        83.152328491210938,
        30.105697631835938
      ],
      "min": [
        -32.09552001953125,
        -0.06120000034570694,
        -30.037614822387695
      ],
      "type": "VEC3"
    },
    {
      "bufferView": 2,
      "byteOffset": 27960,
      "componentType": 5126,
      "count": 2330,
      "max": [
        0.99999284744262695,
        0.99999791383743286,
        0.99998933076858521
      ],
      "min": [
        -0.99999886751174927,
        -1,
        -0.99998933076858521
      ],
      "type": "VEC3"
    },
    {
      "bufferView": 3,
      "componentType": 5126,
      "count": 2330,
      "max": [
        0.99999994039535522,
        0.99999994039535522,
        1,
        1
      ],
      "min": [
        -0.97832340002059937,
        -0.99999994039535522,
        -0.99999994039535522,
        -1
      ],
      "type": "VEC4"
    },
    {
      "bufferView": 1,
      "componentType": 5126,
      "count": 2330,
      "max": [
        0.95939517021179199,
        0.99800807237625122
      ],
      "min": [
        0.001914965221658349,
        0.0019920433405786753
      ],
      "type": "VEC2"
    },
    {
      "bufferView": 0,
      "componentType": 5125,
      "count": 3474,
      "max": [
        2329
      ],
      "min": [
        0
      ],
      "type": "SCALAR"
    },
    {
      "bufferView": 2,
      "byteOffset": 55920,
      "componentType": 5126,
      "count": 1244,
      "max": [
        29.82958984375,
        98.599472045898438,
        29.911848068237305
      ],
      "min": [
        -33.03759765625,
        43.750598907470703,
        -29.809951782226562
      ],
      "type": "VEC3"
    },
    {
      "bufferView": 2,
      "byteOffset": 70848,
      "componentType": 5126,
      "count": 1244,
      "max": [
        0.99532604217529297,
        1,
        0.99382776021957397
      ],
      "min": [
        -0.99948197603225708,
        -1,
        -0.9938277006149292
      ],
      "type": "VEC3"
    },
    {
      "bufferView": 3,
      "byteOffset": 37280,
      "componentType": 5126,
      "count": 1244,
      "max": [
        0.99999994039535522,
        0.99954080581665039,
        0.70737844705581665,
        1
      ],
      "min": [
        -0.97272902727127075,
        -0.99526083469390869,
        -0.70737844705581665,
        1
      ],
      "type": "VEC4"
    },
    {
      "bufferView": 1,
      "byteOffset": 18640,
      "componentType": 5126,
      "count": 1244,
      "max": [
        0.73246592283248901,
        0.78180861473083496
      ],
      "min": [
        0.0019149606814607978,
        0.0019920312333852053
      ],
      "type": "VEC2"
    },
    {
      "bufferView": 0,
      "byteOffset": 13896,
      "componentType": 5125,
      "count": 1920,
      "max": [
        1243
      ],
      "min": [
        0
      ],
      "type": "SCALAR"
    }
  ],
  "asset": {
    "extras": {
      "author": "Pholo (https://sketchfab.com/Pholothe1)",
      "license": "CC-BY-4.0 (http://creativecommons.org/licenses/by/4.0/)",
      "source": "https://sketchfab.com/models/3775963c1d6d4ba1b37956a4fb423add",
      "title": "Chair Low Poly"
    },
    "generator": "Sketchfab-3.42.2",
    "version": "2.0"
  },
  "bufferViews": [
    {
      "buffer": 0,
      "byteLength": 21576,
      "byteOffset": 0,
      "name": "floatBufferViews",
      "target": 34963
    },
    {
      "buffer": 0,
      "byteLength": 28592,
      "byteOffset": 21576,
      "byteStride": 8,
      "name": "floatBufferViews",
      "target": 34962
    },
    {
      "buffer": 0,
      "byteLength": 85776,
      "byteOffset": 50168,
      "byteStride": 12,
      "name": "floatBufferViews",
      "target": 34962
    },
    {
      "buffer": 0,
      "byteLength": 57184,
      "byteOffset": 135944,
      "byteStride": 16,
      "name": "floatBufferViews",
      "target": 34962
    }
  ],
  "buffers": [
    {
      "byteLength": 193128,
      "uri": "scene.bin"
    }
  ],
  "extensionsRequired": [
    "KHR_materials_pbrSpecularGlossiness"
  ],
  "extensionsUsed": [
    "KHR_materials_pbrSpecularGlossiness"
  ],
  "images": [
    {
      "uri": "textures/lambert2_normal.png"
    },
    {
      "uri": "textures/lambert2_specularGlossiness.png"
    },
    {
      "uri": "textures/lambert2_diffuse.png"
    },
    {
      "uri": "textures/lambert3_normal.png"
    },
    {
      "uri": "textures/lambert3_specularGlossiness.png"
    },
    {
      "uri": "textures/lambert3_diffuse.png"
    }
  ],
  "materials": [
    {
      "doubleSided": true,
      "emissiveFactor": [
        0,
        0,
        0
      ],
      "extensions": {
        "KHR_materials_pbrSpecularGlossiness": {
          "diffuseFactor": [
            1,
            1,
            1,
            1
          ],
          "diffuseTexture": {
            "index": 2,
            "texCoord": 0
          },
          "glossinessFactor": 1,
          "specularFactor": [
            0,
            0,
            0
          ],
          "specularGlossinessTexture": {
            "index": 1,
            "texCoord": 0
          }
        }
      },
      "name": "lambert2",
      "normalTexture": {
        "index": 0,
        "scale": 1,
        "texCoord": 0
      }
    },
    {
      "doubleSided": true,
      "emissiveFactor": [
        0,
        0,
        0
      ],
      "extensions": {
        "KHR_materials_pbrSpecularGlossiness": {
          "diffuseFactor": [
            1,
            1,
            1,
            1
          ],
          "diffuseTexture": {
            "index": 5,
            "texCoord": 0
          },
          "glossinessFactor": 1,
          "specularFactor": [
            0,
            0,
            0
          ],
          "specularGlossinessTexture": {
            "index": 4,
            "texCoord": 0
          }
        }
      },
      "name": "lambert3",
      "normalTexture": {
        "index": 3,
        "scale": 1,
        "texCoord": 0
      }
    }
  ],
  "meshes": [
    {
      "name": "Mesh_lambert2_0",
      "primitives": [
        {
          "attributes": {
            "NORMAL": 1,
            "POSITION": 0,
            "TANGENT": 2,
            "TEXCOORD_0": 3
          },
          "indices": 4,
          "material": 0,
          "mode": 4
        }
      ]
    },
    {
      "name": "Mesh_lambert3_0",
      "primitives": [
        {
          "attributes": {
            "NORMAL": 6,
            "POSITION": 5,
            "TANGENT": 7,
            "TEXCOORD_0": 8
          },
          "indices": 9,
          "material": 1,
          "mode": 4
        }
      ]
    }
  ],
  "nodes": [
    {
      "children": [
        1
      ],
      "name": "RootNode (gltf orientation matrix)",
      "rotation": [
        -0.70710678118654746,
        -0,
        -0,
        0.70710678118654757
      ]
    },
    {
      "children": [
        2
      ],
      "matrix": [
        1,
        0,
        0,
        0,
        0,
        -1,
        0,
        0,
        0,
        0,
        -1,
        0,
        0,
        0.019859900698065758,
        -35.911159515380859,
        1
      ],
      "name": "RootNode (model correction matrix)"
    },
    {
      "children": [
        3
      ],
      "matrix": [
        1,
        0,
        0,
        0,
        0,
        -1,
        0,
        0,
        0,
        0,
        -1,
        0,
        0,
        0,
        0,
        1
      ],
      "name": "a3c1c2c87fb6437ea9d163918f1fd80a.fbx"
    },
    {
      "children": [
        4
      ],
      "name": "RootNode"
    },
    {
      "children": [
        5,
        6
      ],
      "matrix": [
        0.36444932222366333,
        0,
        0,
        0,
        0,
        8.0924005768348757e-17,
        0.36444932222366333,
        0,
        0,
        -0.36444932222366333,
        8.0924005768348757e-17,
        0,
        -0.25866645574569702,
        0,
        0,
        1
      ],
      "name": "Mesh"
    },
    {
      "mesh": 0,
      "name": "Mesh_lambert2_0"
    },
    {
      "mesh": 1,
      "name": "Mesh_lambert3_0"
    }
  ],
  "samplers": [
    {
      "magFilter": 9729,
      "minFilter": 9987,
      "wrapS": 10497,
      "wrapT": 10497
    }
  ],
  "scene": 0,
  "scenes": [
    {
      "name": "OSG_Scene",
      "nodes": [
        0
      ]
    }
  ],
  "textures": [
    {
      "sampler": 0,
      "source": 0
    },
    {
      "sampler": 0,
      "source": 1
    },
    {
      "sampler": 0,
      "source": 2
    },
    {
      "sampler": 0,
      "source": 3
    },
    {
      "sampler": 0,
      "source": 4
    },
    {
      "sampler": 0,
      "source": 5
    }
  ]
}

