{
  "accessors": [
    {
      "bufferView": 1,
      "componentType": 5126,
      "count": 192,
      "max": [
        1.2132999897003174,
        1.2132999897003174,
        0.58184999227523804
      ],
      "min": [
        -1.2132999897003174,
        -1.2132999897003174,
        -1
      ],
      "type": "VEC3"
    },
    {
      "bufferView": 1,
      "byteOffset": 2304,
      "componentType": 5126,
      "count": 192,
      "max": [
        0.72788256406784058,
        0.72788256406784058,
        0.72984987497329712
      ],
      "min": [
        -0.72788256406784058,
        -0.72788256406784058,
        -0.80348855257034302
      ],
      "type": "VEC3"
    },
    {
      "bufferView": 0,
      "componentType": 5125,
      "count": 1050,
      "max": [
        191
      ],
      "min": [
        0
      ],
      "type": "SCALAR"
    },
    {
      "bufferView": 1,
      "byteOffset": 4608,
      "componentType": 5126,
      "count": 32,
      "max": [
        0.94830000400543213,
        0.94830000400543213,
        0.37711998820304871
      ],
      "min": [
        -0.94830000400543213,
        -0.94830000400543213,
        0.37711998820304871
      ],
      "type": "VEC3"
    },
    {
      "bufferView": 1,
      "byteOffset": 4992,
      "componentType": 5126,
      "count": 32,
      "max": [
        0.72788256406784058,
        0.72788256406784058,
        0.68571722507476807
      ],
      "min": [
        -0.72788256406784058,
        -0.72788256406784058,
        0.68569529056549072
      ],
      "type": "VEC3"
    },
    {
      "bufferView": 0,
      "byteOffset": 4200,
      "componentType": 5125,
      "count": 90,
      "max": [
        31
      ],
      "min": [
        0
      ],
      "type": "SCALAR"
    },
    {
      "bufferView": 1,
      "byteOffset": 5376,
      "componentType": 5126,
      "count": 472,
      "max": [
        1.1731499433517456,
        1.1151399612426758,
        8.7603902816772461
      ],
      "min": [
        -1.1378400325775146,
        -1.1151399612426758,
        -1.1151100397109985
      ],
      "type": "VEC3"
    },
    {
      "bufferView": 1,
      "byteOffset": 11040,
      "componentType": 5126,
      "count": 472,
      "max": [
        0.99043601751327515,
        0.99851930141448975,
        0.90821570158004761
      ],
      "min": [
        -0.9825252890586853,
        -0.99851930141448975,
        -0.97336375713348389
      ],
      "type": "VEC3"
    },
    {
      "bufferView": 0,
      "byteOffset": 4560,
      "componentType": 5125,
      "count": 2820,
      "max": [
        471
      ],
      "min": [
        0
      ],
      "type": "SCALAR"
    }
  ],
  "asset": {
    "extras": {
      "author": "Raiden Freeman (https://sketchfab.com/raidenfreeman)",
      "license": "CC-BY-4.0 (http://creativecommons.org/licenses/by/4.0/)",
      "source": "https://sketchfab.com/3d-models/low-poly-plant-9b1916457ab74e98a4e9124e637390fd",
      "title": "Low Poly Plant"
    },
    "generator": "Sketchfab-6.24.0",
    "version": "2.0"
  },
  "bufferViews": [
    {
      "buffer": 0,
      "byteLength": 15840,
      "byteOffset": 0,
      "name": "floatBufferViews",
      "target": 34963
    },
    {
      "buffer": 0,
      "byteLength": 16704,
      "byteOffset": 15840,
      "byteStride": 12,
      "name": "floatBufferViews",
      "target": 34962
    }
  ],
  "buffers": [
    {
      "byteLength": 32544,
      "uri": "scene.bin"
    }
  ],
  "materials": [
    {
      "doubleSided": true,
      "emissiveFactor": [
        0,
        0,
        0
      ],
      "name": "PlantMat",
      "pbrMetallicRoughness": {
        "baseColorFactor": [
          0,
          0.80000007152557373,
          0.010741619393229485,
          1
        ],
        "metallicFactor": 0,
        "roughnessFactor": 0.59999999999999998
      }
    },
    {
      "doubleSided": true,
      "emissiveFactor": [
        0,
        0,
        0
      ],
      "name": "PotMat",
      "pbrMetallicRoughness": {
        "baseColorFactor": [
          0.80000007152557373,
          0.14874100685119629,
          0.05939318984746933,
          1
        ],
        "metallicFactor": 0,
        "roughnessFactor": 0.59999999999999998
      }
    },
    {
      "doubleSided": true,
      "emissiveFactor": [
        0,
        0,
        0
      ],
      "name": "Dirt",
      "pbrMetallicRoughness": {
        "baseColorFactor": [
          0.052218630909919739,
          0.019175253808498383,
          0.0053697051480412483,
          1
        ],
        "metallicFactor": 0,
        "roughnessFactor": 0.59999999999999998
      }
    }
  ],
  "meshes": [
    {
      "name": "Pot.001_0",
      "primitives": [
        {
          "attributes": {
            "NORMAL": 1,
            "POSITION": 0
          },
          "indices": 2,
          "material": 1,
          "mode": 4
        }
      ]
    },
    {
      "name": "Pot.001_1",
      "primitives": [
        {
          "attributes": {
            "NORMAL": 4,
            "POSITION": 3
          },
          "indices": 5,
          "material": 2,
          "mode": 4
        }
      ]
    },
    {
      "name": "Plant_0",
      "primitives": [
        {
          "attributes": {
            "NORMAL": 7,
            "POSITION": 6
          },
          "indices": 8,
          "material": 0,
          "mode": 4
        }
      ]
    }
  ],
  "nodes": [
    {
      "children": [
        1
      ],
      "name": "RootNode (gltf orientation matrix)",
      "rotation": [
        -0.70710678118654746,
        -0,
        -0,
        0.70710678118654757
      ]
    },
    {
      "children": [
        2
      ],
      "name": "RootNode (model correction matrix)"
    },
    {
      "children": [
        3,
        6
      ],
      "name": "Root"
    },
    {
      "children": [
        4,
        5
      ],
      "name": "Pot.001"
    },
    {
      "mesh": 0,
      "name": "Pot.001_0"
    },
    {
      "mesh": 1,
      "name": "Pot.001_1"
    },
    {
      "children": [
        7
      ],
      "matrix": [
        1,
        0,
        0,
        0,
        0,
        1,
        0,
        0,
        0,
        0,
        0.60501000000000005,
        0,
        0,
        0,
        0.96335999999999999,
        1
      ],
      "name": "Plant"
    },
    {
      "mesh": 2,
      "name": "Plant_0"
    }
  ],
  "scene": 0,
  "scenes": [
    {
      "name": "OSG_Scene",
      "nodes": [
        0
      ]
    }
  ]
}

